<svg fill="none" height="68" viewBox="0 0 68 68" width="68" xmlns="http://www.w3.org/2000/svg"><g clip-rule="evenodd" fill="#292d32" fill-rule="evenodd"><path d="m34.0056 17.6518c-5.8321-.0041-11.5363 3.5009-13.0609 10.4408-1.8043 8.2562 3.135 15.4161 7.7813 20.0542 2.9538 2.9369 7.5966 2.9333 10.5298.0011l.0024-.0024c4.6631-4.6378 9.6015-11.7802 7.7971-20.0358l-.0001-.0001c-1.5166-6.9403-7.2173-10.4537-13.0496-10.4578zm15.5468 9.8724c-1.8289-8.3692-8.7507-12.5194-15.5451-12.5242-6.7946-.0048-13.7212 4.136-15.5594 12.5052l-.0003.0013c-2.1211 9.7047 3.7267 17.7833 8.5021 22.5501l.0017.0016c3.9419 3.921 10.1537 3.9244 14.0818-.0016 4.7928-4.7673 10.6404-12.8277 8.5192-22.5324z"/><path d="m39.6234 28.3595c.5021.4792.5021 1.2563 0 1.7356l-6.8571 6.5454c-.5021.4793-1.3162.4793-1.8183 0l-2.5714-2.4545c-.5021-.4793-.5021-1.2564 0-1.7356.5021-.4793 1.3161-.4793 1.8183 0l1.6622 1.5867 5.948-5.6776c.5022-.4793 1.3162-.4793 1.8183 0z"/></g></svg>