<svg fill="none" height="68" viewBox="0 0 68 68" width="68" xmlns="http://www.w3.org/2000/svg"><g clip-rule="evenodd" fill="#292d32" fill-rule="evenodd"><path d="m18.1426 21.6072c1.2116-2.1454 3.5462-3.6072 6.2221-3.6072h13.5095c.6218 0 1.1258.4975 1.1258 1.1111v14.8148c0 2.2433-1.855 4.0741-4.1279 4.0741h-1.5011c-.6217 0-1.1258-.4975-1.1258-1.1111 0-.6137.5041-1.1111 1.1258-1.1111h1.5011c1.0294 0 1.8763-.8359 1.8763-1.8519v-13.7037h-12.3837c-1.8273 0-3.4255.9974-4.2553 2.4669-.3028.536-.9884.7283-1.5315.4296-.5431-.2988-.738-.9755-.4353-1.5115z"/><path d="m36.9535 23.1364c0-.6276.5154-1.1364 1.1512-1.1364h2.8242c1.5254 0 2.9127.8151 3.6662 2.0961l.0038.0064h-.0001l2.6246 4.5303c.2038.3517.2024.7839-.0035 1.1344-.2059.3504-.5853.5661-.9957.5661h-1.98c-.2084 0-.3837.1731-.3837.3788v4.5455c0 .2057.1753.3788.3837.3788h4.6046c.6358 0 1.1512.5087 1.1512 1.1363v4.5455c0 3.1427-2.5721 5.6818-5.7558 5.6818h-1.5349c-.6358 0-1.1512-.5088-1.1512-1.1364 0-1.039-.866-1.8939-1.9186-1.8939s-1.9186.8549-1.9186 1.8939c0 .6276-.5154 1.1364-1.1511 1.1364h-6.1396c-.6357 0-1.1511-.5088-1.1511-1.1364 0-1.039-.866-1.8939-1.9186-1.8939s-1.9186.8549-1.9186 1.8939c0 .6276-.5154 1.1364-1.1512 1.1364h-1.5349c-3.1837 0-5.7558-2.5391-5.7558-5.6818 0-.6276.5154-1.1364 1.1512-1.1364.6357 0 1.1511.5088 1.1511 1.1364 0 1.8875 1.5414 3.4091 3.4535 3.4091h.5438c.5034-1.7453 2.1355-3.0303 4.0609-3.0303 1.9253 0 3.5574 1.285 4.0608 3.0303h4.1574c.5034-1.7453 2.1355-3.0303 4.0608-3.0303 1.9254 0 3.5575 1.285 4.0609 3.0303h.5438c1.9121 0 3.4535-1.5216 3.4535-3.4091v-3.4091h-3.4535c-1.48 0-2.6861-1.1906-2.6861-2.6515v-4.5455c0-1.4594 1.2037-2.6491 2.6816-2.6515l-1.6357-2.8233c-.0005-.001-.0011-.0019-.0016-.0028-.352-.5962-.9898-.9618-1.6735-.9618h-1.6731v9.4697c0 2.2943-1.8968 4.1667-4.2209 4.1667h-1.5349c-.6358 0-1.1512-.5088-1.1512-1.1364s.5154-1.1363 1.1512-1.1363h1.5349c1.0526 0 1.9186-.8549 1.9186-1.894z"/><path d="m27.5 44.1818c-1.1297 0-2.0455.814-2.0455 1.8182s.9158 1.8182 2.0455 1.8182 2.0455-.814 2.0455-1.8182-.9158-1.8182-2.0455-1.8182zm-4.5 1.8182c0-2.2091 2.0147-4 4.5-4s4.5 1.7909 4.5 4-2.0147 4-4.5 4-4.5-1.7909-4.5-4z"/><path d="m39.5 44.1818c-1.1297 0-2.0455.814-2.0455 1.8182s.9158 1.8182 2.0455 1.8182 2.0455-.814 2.0455-1.8182-.9158-1.8182-2.0455-1.8182zm-4.5 1.8182c0-2.2091 2.0147-4 4.5-4s4.5 1.7909 4.5 4-2.0147 4-4.5 4-4.5-1.7909-4.5-4z"/><path d="m44.5455 30.3077c-.1976 0-.3637.1757-.3637.3846v4.6154c0 .2089.1661.3846.3637.3846h3.2727v-1.6173l-2.0303-3.7673zm-2.5455.3846c0-1.4834 1.143-2.6923 2.5455-2.6923h1.8763c.3919 0 .7537.2223.9477.5825l2.4873 4.6153c.0939.1741.1432.371.1432.5714v3.077c0 .6372-.4884 1.1538-1.0909 1.1538h-4.3636c-1.4025 0-2.5455-1.2089-2.5455-2.6923z"/><path d="m17 28c0-.5523.5373-1 1.2-1h9.6c.6627 0 1.2.4477 1.2 1s-.5373 1-1.2 1h-9.6c-.6627 0-1.2-.4477-1.2-1z"/><path d="m17 32.5c0-.8284.4884-1.5 1.0909-1.5h5.8182c.6025 0 1.0909.6716 1.0909 1.5s-.4884 1.5-1.0909 1.5h-5.8182c-.6025 0-1.0909-.6716-1.0909-1.5z"/><path d="m17 37c0-.5523.4797-1 1.0714-1h2.8572c.5917 0 1.0714.4477 1.0714 1s-.4797 1-1.0714 1h-2.8572c-.5917 0-1.0714-.4477-1.0714-1z"/></g></svg>