<svg fill="none" height="24" viewBox="0 0 24 24" width="24" xmlns="http://www.w3.org/2000/svg"><g clip-rule="evenodd" fill="#292d32" fill-rule="evenodd"><path d="m8.64062 10.7904c0-.3977.3224-.7201.7201-.7201h5.28068c.3977 0 .7201.3224.7201.7201s-.3224.7201-.7201.7201h-5.28068c-.3977 0-.7201-.3224-.7201-.7201z"/><path d="m12.0031 2.86989c-3.28049-.00222-6.48911 1.90136-7.34673 5.67044-1.01491 4.48397 1.76344 8.37257 4.37702 10.89157 1.66151 1.595 4.27311 1.5931 5.92301.0006l.0013-.0013c2.623-2.5188 5.4009-6.3979 4.3859-10.88157v-.00004c-.8531-3.76933-4.0598-5.67749-7.3405-5.6797zm8.7451 5.36175c-1.0287-4.54537-4.9223-6.79937-8.7441-6.80195-3.82193-.00258-7.71815 2.24625-8.75214 6.79161l-.00017.00074c-1.19316 5.27066 2.09624 9.65816 4.78244 12.24706l.00091.0009c2.21736 2.1295 5.71146 2.1313 7.92106-.0009 2.6959-2.5891 5.9852-6.9668 4.792-12.23746z"/></g></svg>