<svg fill="none" height="68" viewBox="0 0 68 68" width="68" xmlns="http://www.w3.org/2000/svg"><g clip-rule="evenodd" fill="#292d32" fill-rule="evenodd"><path d="m51.3144 44.3694c-.0727-3.2134-2.7328-5.7569-5.9453-5.6842h-.0018c-1.3587.029-2.6098.5336-3.6093 1.3557-1.3064 1.0903-2.1163 2.743-2.0728 4.5705l.0003.014h-.0001c.0144 1.0792.3459 2.1055.8956 2.959l.0137.0217c1.0256 1.6612 2.8913 2.7505 5.0145 2.7091 1.4761-.0453 2.7928-.6133 3.7906-1.5388l.0147-.0137.0001.0001c.4346-.3912.8216-.8667 1.1022-1.3719l.0174-.0303c.5226-.8855.809-1.9086.7803-2.9857zm2.6827-.0634c-.1076-4.6928-3.9941-8.4095-8.6877-8.3038-2.0029.0428-3.8275.7895-5.2603 1.9696l-.006.0049c-1.9103 1.5921-3.1024 4.0146-3.0408 6.6915.0226 1.5973.5111 3.1049 1.3157 4.3586 1.5152 2.4459 4.2589 4.0349 7.3525 3.9714l.0122-.0003c2.1317-.0634 4.0658-.8879 5.5346-2.2471.6316-.57 1.2045-1.2674 1.6367-2.0412.7596-1.2932 1.1853-2.8042 1.1431-4.4036z"/><path d="m49.6335 41.4549c.5007.5923.4866 1.5365-.0314 2.109l-3.6347 4.0171c-.5025.5553-1.2986.5591-1.8051.0086l-1.7565-1.909c-.5222-.5675-.5432-1.5115-.0469-2.1086.4963-.597 1.3219-.621 1.844-.0535l.8504.9241 2.7359-3.0236c.518-.5724 1.3437-.5563 1.8443.0359z"/><path d="m16.1798 25.6232c.3693-.5966 1.186-.8004 1.8242-.4551l15.0491 8.1416 14.9424-8.0915c.6381-.3455 1.4549-.1421 1.8245.4544.3695.5964.1519 1.3601-.4861 1.7056l-15.6113 8.4537c-.4138.224-.9241.2241-1.3379.0003l-15.7181-8.5037c-.6382-.3452-.8562-1.1087-.4868-1.7053z"/><path d="m33.5 33c.8284 0 1.5.6036 1.5 1.3482v16.3036c0 .7446-.6716 1.3482-1.5 1.3482s-1.5-.6036-1.5-1.3482v-16.3036c0-.7446.6716-1.3482 1.5-1.3482z"/><path d="m33 17.6512c-1.1419 0-2.211.2517-2.9587.6786l-.0061.0035-9.278 5.2317c-.7992.4501-1.6024 1.2934-2.2088 2.3396-.6065 1.0463-.9422 2.1675-.9422 3.0935v10.0038c0 .926.3357 2.0472.9422 3.0935.6064 1.0462 1.4091 1.8892 2.2083 2.3393l9.2847 5.2355c.7476.427 1.8167.6786 2.9586.6786s2.211-.2516 2.9586-.6786l.0082-.0047 1.9365-1.0872c-.6382-1.1859-.9941-2.5474-.9941-3.9737 0-2.6407 1.1964-5.0159 3.0976-6.5513 1.4175-1.1493 3.2123-1.844 5.1553-1.844 1.1511 0 2.2413.2365 3.2317.6687v-7.8799c0-.926-.3357-2.0472-.9422-3.0935-.6065-1.0462-1.4092-1.8892-2.2083-2.3393l-9.2847-5.2354c-.7477-.427-1.8167-.6787-2.9586-.6787zm4.2312-1.635c-1.2325-.7029-2.7682-1.0162-4.2312-1.0162-1.4631 0-2.9988.3133-4.2313 1.0162l-9.2745 5.2297c-1.3029.7341-2.4117 1.968-3.1908 3.3121s-1.3034 2.9271-1.3034 4.4401v10.0038c0 1.513.5243 3.096 1.3034 4.4401s1.8874 2.5777 3.1903 3.3118c-.0002-.0001.0002.0001 0 0l9.2718 5.2281c.0011.0006.0021.0012.0032.0018 1.2325.7029 2.7682 1.0163 4.2313 1.0163 1.4626 0 2.9979-.3132 4.2302-1.0157.0014-.0008.0028-.0016.0042-.0024l3.1713-1.7804c.3432-.1927.5829-.5323.6526-.9247.0698-.3923-.0378-.7958-.2929-1.0986-.1666-.1976-.3042-.3919-.4096-.5825-.0086-.0155-.0175-.0308-.0266-.0459-.5175-.8537-.8138-1.8681-.8138-2.9452 0-1.8124.8184-3.4309 2.1131-4.476l.0022-.0018c.9801-.7947 2.2083-1.2663 3.5314-1.2663 1.414 0 2.6757.5144 3.6613 1.3881.3503.3105.8365.4078 1.2763.2554.4397-.1524.7665-.5314.8576-.9948.0432-.2198.0429-.4037.0427-.4924 0-.0053 0-.0103 0-.0149v-10.0038c0-1.513-.5244-3.096-1.3035-4.4401-.779-1.3441-1.8873-2.5777-3.1902-3.3118.0001.0001-.0002-.0001 0 0l-9.2719-5.2281c-.001-.0006-.0021-.0013-.0032-.0019z"/></g></svg>