<svg fill="none" height="24" viewBox="0 0 24 24" width="24" xmlns="http://www.w3.org/2000/svg" xmlns:xlink="http://www.w3.org/1999/xlink"><clipPath id="a"><path d="m0 0h24v24h-24z"/></clipPath><g clip-path="url(#a)"><path clip-rule="evenodd" d="m6.13808 3.69362c-.98755.5639-1.80345 1.88638-1.80345 4.18624v8.22094c0 2.3076.81607 3.6314 1.80545 4.1989.99013.568 2.55663.6098 4.57072-.5202l7.186-4.1232c2.0174-1.1542 2.7686-2.5154 2.7686-3.6429 0-1.1274-.7499-2.48787-2.7674-3.64209l-7.1906-4.12587c-.0002-.00009.0001.00009 0 0-2.01607-1.15326-3.58219-1.11547-4.56932-.55182zm-1.16721-1.99993c1.95832-1.118213 4.45476-.849267 6.90543.55278l7.1906 4.12587c.0003.00017-.0002-.00016 0 0 2.449 1.40133 3.9331 3.405 3.9331 5.64106 0 2.236-1.4831 4.2391-3.9318 5.6404m0 0-7.1999 4.1312c-2.45062 1.3767-4.94479 1.6336-6.89943.5124-1.95614-1.1221-2.96887-3.393-2.96887-6.1966v-8.22094c0-2.7959 1.0129-5.06816 2.97087-6.18617" fill="#fff" fill-rule="evenodd"/></g></svg>