<svg fill="none" height="68" viewBox="0 0 68 68" width="68" xmlns="http://www.w3.org/2000/svg"><g clip-rule="evenodd" fill="#292d32" fill-rule="evenodd"><path d="m21.9444 18.9091c-.8848.8769-1.3498 2.5103-1.3498 5.948v18.8572c0 .7101-.5808 1.2857-1.2973 1.2857s-1.2973-.5756-1.2973-1.2857v-18.8572c0-3.4193.3999-6.0717 2.1097-7.7662 1.7098-1.6946 4.3861-2.0909 7.8362-2.0909h12.1082c3.4501 0 6.1264.3963 7.8362 2.0909 1.7098 1.6945 2.1097 4.3469 2.1097 7.7662v17.1601c0 .2292 0 .5082-.0206.7944-.051.7083-.6718 1.2414-1.3864 1.1908-.7147-.0505-1.2526-.6657-1.2016-1.374.0135-.1867.014-.3808.014-.6284v-17.1429c0-3.4377-.465-5.0711-1.3498-5.948-.8847-.8768-2.5328-1.3377-6.0015-1.3377h-12.1082c-3.4687 0-5.1168.4609-6.0015 1.3377z"/><path d="m24.227 39.6471c-1.9992 0-3.6324 1.6662-3.6324 3.7058v1.1471c0 2.6749 2.1349 4.8529 4.7568 4.8529h17.2972c2.6219 0 4.7568-2.178 4.7568-4.8529v-4.8529zm-6.227 3.7058c0-3.5015 2.7949-6.3529 6.227-6.3529h24.4757c.7165 0 1.2973.5926 1.2973 1.3235v6.1765c0 4.1368-3.2965 7.5-7.3514 7.5h-17.2972c-4.0549 0-7.3514-3.3632-7.3514-7.5z"/><path d="m26 25c0-.5523.5655-1 1.2632-1h13.4736c.6977 0 1.2632.4477 1.2632 1s-.5655 1-1.2632 1h-13.4736c-.6977 0-1.2632-.4477-1.2632-1z"/><path d="m26 31c0-.5523.5166-1 1.1538-1h7.6924c.6372 0 1.1538.4477 1.1538 1s-.5166 1-1.1538 1h-7.6924c-.6372 0-1.1538-.4477-1.1538-1z"/></g></svg>