<svg fill="none" height="68" viewBox="0 0 68 68" width="68" xmlns="http://www.w3.org/2000/svg"><g clip-rule="evenodd" fill="#292d32" fill-rule="evenodd"><path d="m26.6301 18.7198c.1669-.433.5912-.7198 1.0651-.7198h11.1669c.6284 0 1.1379.4975 1.1379 1.1111v14.8148c0 2.2433-1.875 4.0741-4.1724 4.0741h-16.6897c-.6284 0-1.1379-.4975-1.1379-1.1111v-9.4519c0-.4671.2992-.8843.7487-1.0441.4496-.1597.9534-.0279 1.2609.3299.8892 1.0347 2.2597 1.684 3.7891 1.6479l.005-.0001c1.2466-.0241 2.3549-.4916 3.181-1.2627.0179-.0166.0362-.0327.0551-.0481.3496-.2863.6593-.6643.9048-1.0957l.0147-.0251c.4418-.7309.6862-1.5925.6618-2.4872v-.0011c-.0371-1.4124-.6773-2.6493-1.676-3.504-.3564-.305-.4818-.7938-.315-1.2269zm3.4061 1.5024c.5217.9434.8296 2.0195.86 3.1708.036 1.3223-.3234 2.5891-.9693 3.6629-.3547.6203-.8219 1.2063-1.396 1.683-1.2338 1.1395-2.8754 1.818-4.6797 1.8534-1.2927.0301-2.5166-.276-3.5753-.8385v6.024h15.5517c1.0405 0 1.8965-.8359 1.8965-1.8519v-13.7037z"/><path d="m37.3488 24.0909c0-.6025.4998-1.0909 1.1163-1.0909h2.7387c1.4792 0 2.8244.7825 3.5551 2.0122l.0036.0062 2.5451 4.3491c.1976.3376.1963.7525-.0034 1.089-.1998.3364-.5676.5435-.9656.5435h-1.92c-.2021 0-.3721.1661-.3721.3636v4.3637c0 .1975.17.3636.3721.3636h4.4651c.6165 0 1.1163.4884 1.1163 1.0909v4.3637c0 3.017-2.4942 5.4545-5.5814 5.4545h-1.4884c-.6165 0-1.1162-.4884-1.1162-1.0909 0-.9975-.8398-1.8182-1.8605-1.8182s-1.8605.8207-1.8605 1.8182c0 .6025-.4998 1.0909-1.1163 1.0909h-5.9534c-.6165 0-1.1163-.4884-1.1163-1.0909 0-.9975-.8398-1.8182-1.8605-1.8182s-1.8605.8207-1.8605 1.8182c0 .6025-.4997 1.0909-1.1162 1.0909h-1.4884c-3.0872 0-5.5814-2.4375-5.5814-5.4545v-4.3637c0-.6025.4998-1.0909 1.1163-1.0909h16.3721c1.0207 0 1.8604-.8207 1.8604-1.8182zm2.2326 1.0909v9.0909c0 2.2025-1.8393 4-4.093 4h-15.2558v3.2728c0 1.812 1.4946 3.2727 3.3488 3.2727h.5273c.4882-1.6755 2.0708-2.9091 3.9378-2.9091s3.4497 1.2336 3.9378 2.9091h4.0314c.4881-1.6755 2.0708-2.9091 3.9378-2.9091s3.4496 1.2336 3.9378 2.9091h.5273c1.8542 0 3.3488-1.4607 3.3488-3.2727v-3.2728h-3.3488c-1.4351 0-2.6046-1.1429-2.6046-2.5454v-4.3637c0-1.401 1.1671-2.5431 2.6002-2.5454l-1.586-2.7104c-.0006-.0009-.0011-.0018-.0016-.0027-.3414-.5724-.9599-.9233-1.6228-.9233z"/><path d="m29 44.1818c-1.0042 0-1.8182.814-1.8182 1.8182s.814 1.8182 1.8182 1.8182 1.8182-.814 1.8182-1.8182-.814-1.8182-1.8182-1.8182zm-4 1.8182c0-2.2091 1.7909-4 4-4s4 1.7909 4 4-1.7909 4-4 4-4-1.7909-4-4z"/><path d="m40.5 44.1818c-1.1297 0-2.0455.814-2.0455 1.8182s.9158 1.8182 2.0455 1.8182 2.0455-.814 2.0455-1.8182-.9158-1.8182-2.0455-1.8182zm-4.5 1.8182c0-2.2091 2.0147-4 4.5-4s4.5 1.7909 4.5 4-2.0147 4-4.5 4-4.5-1.7909-4.5-4z"/><path d="m44.5455 31.0769c-.1976 0-.3637.1582-.3637.3462v4.1538c0 .188.1661.3462.3637.3462h3.2727v-1.4556l-2.0303-3.3906zm-2.5455.3462c0-1.3351 1.143-2.4231 2.5455-2.4231h1.8763c.3919 0 .7537.2001.9477.5242l2.4873 4.1539c.0939.1566.1432.3339.1432.5142v2.7692c0 .5736-.4884 1.0385-1.0909 1.0385h-4.3636c-1.4025 0-2.5455-1.088-2.5455-2.4231z"/><path d="m27.1553 20.4054c-.8577-.7624-2.0036-1.2182-3.2658-1.1944-1.1185.024-2.1483.4396-2.9711 1.1163-1.0733.8957-1.7425 2.27-1.7071 3.7772.0244.9048.2888 1.7334.7453 2.4241l.006.009-.0001.0001c.1486.2296.2843.4172.4253.5682.0132.0143.0261.0288.0386.0437.8634 1.0291 2.1943 1.6748 3.6793 1.6389l.0049-.0001c1.2105-.024 2.2867-.4889 3.0889-1.2558.0173-.0165.0351-.0325.0534-.0478.3395-.2848.6403-.6607.8786-1.0898l.0144-.0249c.4289-.7269.6663-1.5838.6425-2.4736v-.0011c-.036-1.4046-.6576-2.6348-1.6274-3.4849l-.0058-.005zm1.4653-1.6544c-1.2633-1.1217-2.9446-1.7845-4.7744-1.7497l-.0025.0001c-1.6497.0351-3.1525.65-4.3327 1.622l-.0049.0041c-1.5769 1.3141-2.5566 3.3272-2.5041 5.5311l.0001.0032c.0347 1.3027.4175 2.5345 1.1079 3.5809.1707.2635.3811.5661.6418.8492 1.2874 1.5213 3.2475 2.4575 5.4049 2.4061 1.7521-.0353 3.3461-.71 4.5441-1.8434.5575-.474 1.0111-1.0568 1.3556-1.6736.6272-1.068.9762-2.3279.9412-3.643v.0007l-1.1046.0283 1.1046-.0294v.0004c-.0525-2.0414-.9619-3.8451-2.377-5.087z"/><path d="m26.6793 22.325c.4381.423.4258 1.0975-.0274 1.5064l-3.1804 2.8693c-.4397.3967-1.1362.3994-1.5795.0062l-1.537-1.3636c-.4568-.4054-.4752-1.0797-.041-1.5061.4343-.4265 1.1567-.4436 1.6136-.0383l.7441.6601 2.3938-2.1597c.4532-.4089 1.1758-.3974 1.6138.0257z"/></g></svg>