<svg fill="none" height="24" viewBox="0 0 24 24" width="24" xmlns="http://www.w3.org/2000/svg"><g clip-rule="evenodd" fill="#292d32" fill-rule="evenodd"><path d="m11.9986 6.86297c-1.4369 0-2.58876 1.15904-2.58876 2.58877 0 1.38016 1.07816 2.50536 2.44416 2.57696.0941-.0077.1944-.0084.2919-.0002 1.3602-.0727 2.4326-1.1936 2.4415-2.57893-.0012-1.42721-1.1613-2.5866-2.5888-2.5866zm-4.1236 2.58877c0-2.27435 1.83598-4.12362 4.1236-4.12362 2.2759 0 4.1236 1.84774 4.1236 4.12362v.00434c-.0125 2.21872-1.7577 4.03302-3.9746 4.10862-.0451.0015-.0901-.0009-.1347-.0073.0044.0006.0052.0006.0024.0004-.0026-.0002-.007-.0004-.0128-.0004-.0126 0-.0242.0009-.0315.0018-.0402.005-.0808.0069-.1213.0055-2.2131-.0755-3.9747-1.887-3.9747-4.11296z"/><path d="m7.34101 17.5502c-.78809.5308-1.2286 1.1382-1.40025 1.7154 1.6435 1.3763 3.75049 2.2 6.05914 2.2 2.3087 0 4.4157-.8237 6.0592-2.2-.1717-.5775-.6126-1.1852-1.4013-1.7162-1.2384-.8283-2.9222-1.2665-4.6502-1.2665-1.7272 0-3.41697.4379-4.66659 1.2673zm4.66659-2.8022c1.9604 0 3.9598.4927 5.5046 1.5264l.0016.0011c1.2306.828 2.0135 1.952 2.1458 3.1954.0258.2424-.0651.4826-.2448.6472-1.9572 1.7922-4.555 2.8823-7.4149 2.8823-2.85978 0-5.45763-1.0901-7.41481-2.8823-.17975-.1646-.27062-.4048-.24484-.6472.13228-1.2434.9152-2.3674 2.1458-3.1954l.00381-.0026h.00001c1.55384-1.0321 3.55713-1.5249 5.51773-1.5249z"/><path d="m11.9997 2.53484c-5.22729 0-9.46486 4.23757-9.46486 9.46486 0 5.2273 4.23757 9.4649 9.46486 9.4649 5.2273 0 9.4649-4.2376 9.4649-9.4649 0-5.22729-4.2376-9.46486-9.4649-9.46486zm-10.9997 9.46486c0-6.07496 4.92474-10.9997 10.9997-10.9997 6.075 0 10.9997 4.92474 10.9997 10.9997 0 6.075-4.9247 10.9997-10.9997 10.9997-6.07496 0-10.9997-4.9247-10.9997-10.9997z"/></g></svg>